<?xml version="1.0" standalone="no"?>
<!DOCTYPE svg PUBLIC "-//W3C//DTD SVG 20010904//EN"
 "http://www.w3.org/TR/2001/REC-SVG-20010904/DTD/svg10.dtd">
<svg version="1.0" xmlns="http://www.w3.org/2000/svg"
 width="1524.000000pt" height="1524.000000pt" viewBox="0 0 1524.000000 1524.000000"
 preserveAspectRatio="xMidYMid meet">
<metadata>
Created by potrace 1.14, written by Peter Selinger 2001-2017
</metadata>
<g transform="translate(0.000000,1524.000000) scale(0.100000,-0.100000)"
fill="#000000" stroke="none">
<path d="M5690 15184 c-47 -30 -93 -57 -102 -60 -10 -4 -18 -10 -18 -15 0 -5
-4 -9 -9 -9 -11 0 -197 -115 -223 -138 -10 -8 -18 -11 -18 -6 0 5 -4 4 -8 -1
-5 -8 -348 -225 -576 -365 -14 -8 -50 -31 -80 -50 l-56 -34 0 -6883 0 -6883
24 11 c23 11 44 3 91 -34 19 -14 140 -91 145 -92 3 0 16 -8 30 -18 57 -42 271
-177 279 -177 5 0 11 -3 13 -8 3 -7 195 -132 204 -132 3 0 14 -9 26 -19 11
-11 32 -26 47 -33 26 -14 104 -63 276 -176 l90 -59 40 26 c22 15 63 40 90 56
28 15 53 32 56 37 3 6 9 9 13 9 3 -1 31 14 61 34 31 19 60 35 65 35 6 0 10 4
10 9 0 5 8 11 18 14 16 5 63 32 87 50 5 4 78 48 160 98 83 50 161 99 175 107
94 60 233 142 241 142 5 0 9 4 9 9 0 5 15 16 33 25 17 9 57 32 87 51 30 19 73
44 95 56 22 12 42 25 45 29 3 4 17 13 32 21 39 20 222 132 228 139 3 3 16 11
30 18 14 7 45 26 70 42 25 16 52 33 60 36 8 4 38 22 65 39 52 33 117 73 147
90 10 6 102 62 205 125 103 63 195 120 205 125 15 9 256 157 336 207 15 9 38
23 52 31 50 28 135 82 148 95 8 7 18 10 23 7 5 -4 9 -2 9 3 0 4 15 16 33 25
17 10 44 25 59 35 27 17 275 169 498 305 245 149 420 257 550 337 74 45 155
94 180 108 25 13 52 31 61 38 8 8 18 14 22 14 3 0 33 18 66 40 33 22 62 40 64
40 6 0 308 186 323 199 6 5 20 11 30 15 20 6 20 17 20 2155 l-1 2150 -63 40
c-34 23 -64 41 -67 41 -2 0 -31 18 -63 40 -33 22 -82 52 -109 68 -26 16 -156
96 -288 179 -132 82 -251 156 -265 164 -14 8 -27 17 -30 20 -3 3 -12 8 -20 12
-8 4 -50 29 -93 57 -43 27 -83 50 -88 50 -5 0 -9 3 -9 8 0 4 -17 16 -37 27
-21 11 -64 37 -95 57 -31 21 -60 38 -63 38 -3 0 -11 5 -18 10 -24 21 -138 90
-147 90 -6 0 -10 5 -10 10 0 6 -7 10 -15 10 -8 0 -15 5 -15 10 0 6 -5 10 -10
10 -6 0 -38 18 -71 40 -33 22 -62 40 -64 40 -2 0 -66 39 -142 87 -76 47 -187
117 -248 154 -60 38 -114 72 -120 76 -5 5 -27 17 -47 28 -21 11 -38 23 -38 27
0 5 -5 8 -11 8 -6 0 -34 15 -62 34 -29 18 -115 72 -192 119 -77 48 -147 91
-155 97 -8 5 -82 51 -165 102 -82 51 -152 94 -155 98 -3 3 -15 11 -27 18 -13
6 -33 18 -45 25 -13 6 -25 15 -28 18 -3 4 -21 15 -40 26 -19 10 -53 30 -75 44
-22 14 -60 39 -85 55 -25 15 -47 29 -50 29 -3 1 -37 22 -77 48 -39 26 -74 47
-78 47 -4 0 -12 6 -20 13 -7 6 -38 27 -68 45 l-54 33 -1 1114 c0 613 1 1115 3
1115 1 0 101 -59 221 -131 121 -73 233 -139 249 -149 17 -9 83 -49 147 -89 65
-39 122 -71 127 -71 4 0 14 -7 21 -15 7 -8 36 -27 66 -42 30 -15 54 -31 54
-35 0 -4 5 -8 10 -8 6 0 47 -22 91 -50 44 -27 82 -50 84 -50 2 0 32 -18 66
-40 35 -23 76 -46 92 -53 15 -6 27 -15 27 -19 0 -4 4 -8 9 -8 10 0 167 -92
188 -110 7 -5 14 -10 17 -10 2 0 41 -22 86 -50 45 -27 86 -50 91 -50 5 0 9 -3
9 -8 0 -4 13 -13 28 -20 l29 -12 2 -663 c0 -364 1 -673 0 -687 0 -14 -2 -41
-3 -60 -2 -43 23 -83 64 -100 16 -7 30 -16 30 -21 0 -5 5 -9 11 -9 5 0 41 -20
79 -45 38 -25 73 -45 79 -45 5 0 11 -4 13 -9 2 -5 17 -17 35 -27 18 -11 99
-61 180 -113 195 -124 285 -180 336 -212 23 -15 88 -56 144 -93 102 -65 118
-73 125 -58 2 4 19 16 38 26 19 11 72 44 117 73 46 29 86 53 89 52 4 0 10 3
13 8 3 5 58 41 121 81 63 39 120 75 126 79 5 4 19 13 30 19 10 6 77 48 148 93
70 44 132 78 137 75 7 -4 7 633 -1 2730 -1 220 -4 405 -7 412 -3 7 -86 64
-186 126 -100 62 -183 116 -185 120 -2 5 -8 8 -14 8 -5 0 -29 14 -53 30 -24
17 -48 30 -54 30 -6 0 -11 5 -11 10 0 6 -5 10 -11 10 -6 0 -30 14 -54 30 -24
17 -48 30 -53 30 -6 0 -12 3 -14 8 -3 7 -470 302 -492 311 -6 2 -15 8 -21 13
-21 18 -136 88 -144 88 -4 0 -16 9 -26 20 -10 11 -24 20 -32 20 -7 0 -13 5
-13 10 0 6 -4 10 -9 10 -5 0 -45 23 -88 50 -43 28 -85 53 -93 57 -8 4 -36 22
-62 40 -26 18 -52 33 -58 33 -5 0 -10 5 -10 10 0 6 -4 10 -9 10 -5 0 -51 27
-102 60 -52 33 -110 69 -129 80 -19 12 -55 34 -80 50 -25 17 -57 36 -72 42
-16 7 -28 16 -28 20 0 4 -7 8 -15 8 -8 0 -15 3 -15 8 0 4 -17 16 -37 27 -21
11 -40 22 -43 26 -3 3 -36 25 -75 48 -38 23 -167 103 -285 178 -118 74 -227
143 -242 152 -112 68 -174 106 -178 112 -3 3 -21 14 -40 24 -19 10 -48 27 -65
39 -16 12 -39 26 -50 33 -21 12 -460 286 -485 303 -81 53 -142 90 -150 90 -6
0 -10 4 -10 9 0 5 -13 14 -30 21 -16 7 -30 16 -30 21 0 5 -5 9 -11 9 -6 0 -34
15 -62 34 -29 18 -113 71 -187 117 -74 46 -136 87 -138 92 -2 4 -8 7 -12 7 -5
0 -47 24 -93 53 -45 28 -92 57 -102 64 -11 6 -99 61 -195 121 -96 60 -180 112
-185 115 -6 3 -48 -19 -95 -49z m1398 -8636 c12 -6 22 -15 22 -20 0 -4 5 -8
12 -8 6 0 26 -11 44 -25 18 -14 37 -25 43 -25 6 0 11 -4 11 -10 0 -5 6 -10 14
-10 8 0 21 -6 28 -13 7 -7 74 -51 148 -98 74 -48 187 -119 250 -159 63 -41
117 -77 118 -82 2 -4 8 -8 12 -8 5 0 38 -18 72 -40 80 -51 86 -55 131 -85 21
-14 40 -25 42 -25 2 0 33 -20 69 -45 37 -25 69 -45 72 -45 3 0 16 -8 28 -17
l22 -18 -2 -650 c-1 -357 -2 -653 -3 -657 0 -3 -18 -17 -38 -29 -21 -12 -102
-62 -180 -111 -78 -48 -146 -88 -152 -88 -6 0 -11 -4 -11 -9 0 -5 -13 -14 -30
-21 -16 -7 -30 -16 -30 -20 0 -4 -8 -11 -17 -14 -10 -3 -27 -12 -38 -19 -151
-92 -231 -143 -233 -149 -2 -4 -8 -8 -14 -8 -5 0 -28 -12 -51 -27 -23 -16 -51
-33 -62 -40 -149 -89 -282 -172 -303 -189 -15 -11 -34 -23 -43 -27 -15 -5 -17
104 -17 1419 l0 1424 32 -20 c17 -12 41 -26 54 -32z"/>
</g>
</svg>
