<svg viewBox="0 0 23 29" fill="currentColor" xmlns="http://www.w3.org/2000/svg">
<path d="M10.4545 16.5H6.92614C6.85682 16.5 6.79034 16.5263 6.74132 16.5732C6.69231 16.6201 6.66477 16.6837 6.66477 16.75V18.25C6.66477 18.3163 6.69231 18.3799 6.74132 18.4268C6.79034 18.4737 6.85682 18.5 6.92614 18.5H10.4545V21.875C10.4545 21.9413 10.4821 22.0049 10.5311 22.0518C10.5801 22.0987 10.6466 22.125 10.7159 22.125H12.2841C12.3534 22.125 12.4199 22.0987 12.4689 22.0518C12.5179 22.0049 12.5455 21.9413 12.5455 21.875V18.5H16.0739C16.1432 18.5 16.2097 18.4737 16.2587 18.4268C16.3077 18.3799 16.3352 18.3163 16.3352 18.25V16.75C16.3352 16.6837 16.3077 16.6201 16.2587 16.5732C16.2097 16.5263 16.1432 16.5 16.0739 16.5H12.5455V13.125C12.5455 13.0587 12.5179 12.9951 12.4689 12.9482C12.4199 12.9013 12.3534 12.875 12.2841 12.875H10.7159C10.6466 12.875 10.5801 12.9013 10.5311 12.9482C10.4821 12.9951 10.4545 13.0587 10.4545 13.125V16.5ZM22.6929 7.39688C22.8889 7.58438 23 7.8375 23 8.10312V27.375C23 27.9281 22.5328 28.375 21.9545 28.375H1.04545C0.467187 28.375 0 27.9281 0 27.375V1.375C0 0.821875 0.467187 0.375 1.04545 0.375H14.9206C15.1983 0.375 15.4662 0.48125 15.6622 0.66875L22.6929 7.39688ZM20.5889 8.5625L14.4403 2.68125V8.5625H20.5889Z"/>
</svg>
