<svg width="25" height="25" viewBox="0 0 25 25" fill="none" xmlns="http://www.w3.org/2000/svg">
<circle cx="12.5" cy="12.5" r="12.5" fill="#BDBDBD"/>
<path d="M11.1562 14.2109V13.6328C11.1562 13.1328 11.263 12.6979 11.4766 12.3281C11.6901 11.9583 12.0807 11.5651 12.6484 11.1484C13.1953 10.7578 13.5547 10.4401 13.7266 10.1953C13.9036 9.95052 13.9922 9.67708 13.9922 9.375C13.9922 9.03646 13.8672 8.77865 13.6172 8.60156C13.3672 8.42448 13.0182 8.33594 12.5703 8.33594C11.7891 8.33594 10.8984 8.59115 9.89844 9.10156L9.04688 7.39062C10.2083 6.73958 11.4401 6.41406 12.7422 6.41406C13.8151 6.41406 14.6667 6.67188 15.2969 7.1875C15.9323 7.70312 16.25 8.39062 16.25 9.25C16.25 9.82292 16.1198 10.3177 15.8594 10.7344C15.599 11.151 15.1042 11.6198 14.375 12.1406C13.875 12.5104 13.5573 12.7917 13.4219 12.9844C13.2917 13.1771 13.2266 13.4297 13.2266 13.7422V14.2109H11.1562ZM10.9062 16.8828C10.9062 16.4453 11.0234 16.1146 11.2578 15.8906C11.4922 15.6667 11.8333 15.5547 12.2812 15.5547C12.7135 15.5547 13.0469 15.6693 13.2812 15.8984C13.5208 16.1276 13.6406 16.4557 13.6406 16.8828C13.6406 17.2943 13.5208 17.6198 13.2812 17.8594C13.0417 18.0938 12.7083 18.2109 12.2812 18.2109C11.8438 18.2109 11.5052 18.0964 11.2656 17.8672C11.026 17.6328 10.9062 17.3047 10.9062 16.8828Z" fill="white"/>
</svg>
